<svg xmlns="http://www.w3.org/2000/svg" xmlns:xlink="http://www.w3.org/1999/xlink" width="658" zoomAndPan="magnify" viewBox="0 0 493.5 500.999987" height="668" preserveAspectRatio="xMidYMid meet" version="1.0"><defs><clipPath id="f5da145e0e"><path d="M 0 0.648438 L 492.910156 0.648438 L 492.910156 500.234375 L 0 500.234375 Z M 0 0.648438 " clip-rule="nonzero"/></clipPath></defs><g clip-path="url(#f5da145e0e)"><path fill="#63a891" d="M 210.90625 301.902344 L 210.90625 89.070312 C 210.90625 63.773438 209.304688 47.070312 206.113281 38.964844 C 203.660156 32.828125 198.625 27.542969 191.011719 23.125 C 180.203125 17.230469 168.902344 14.28125 157.113281 14.28125 L 139.429688 14.28125 L 139.429688 0.648438 L 353.484375 0.648438 L 353.484375 14.28125 L 335.429688 14.28125 C 315.046875 14.28125 300.1875 20.300781 290.851562 32.335938 C 284.710938 40.191406 281.640625 59.105469 281.640625 89.070312 L 281.640625 301.980469 C 291.996094 299.753906 301.410156 296.449219 309.875 292.070312 C 327.09375 283.15625 340.285156 271.839844 349.433594 258.105469 C 358.585938 244.382812 364.90625 225.238281 368.398438 200.671875 C 371.894531 176.101562 373.640625 154.308594 373.640625 135.28125 L 373.640625 95.023438 C 373.640625 50.878906 396.191406 22.242188 421.882812 8.316406 C 447.566406 -5.605469 474.886719 3.160156 480.304688 5.859375 C 485.859375 8.628906 489.929688 12.386719 492.917969 16.300781 L 484.394531 27.910156 C 475.742188 24.824219 465.816406 22.632812 460.292969 25.953125 C 449.078125 32.703125 443 50.105469 443 95.023438 L 443 113.242188 C 443 172.246094 439.144531 212.472656 431.4375 233.910156 C 419.878906 265.214844 400.25 290.140625 372.550781 308.6875 C 350.457031 323.484375 320.152344 332.378906 281.640625 335.371094 L 281.640625 411.8125 C 281.640625 437.109375 283.238281 453.808594 286.433594 461.917969 C 288.890625 468.054688 294.042969 473.339844 301.90625 477.757812 C 312.46875 483.65625 323.640625 486.601562 335.429688 486.601562 L 353.484375 486.601562 L 353.484375 500.234375 L 139.429688 500.234375 L 139.429688 486.601562 L 157.113281 486.601562 C 177.746094 486.601562 192.726562 480.582031 202.0625 468.546875 C 207.957031 460.691406 210.90625 441.78125 210.90625 411.8125 L 210.90625 335.339844 C 172.574219 332.324219 142.394531 323.441406 120.359375 308.6875 C 92.660156 290.140625 73.039062 265.214844 61.476562 233.910156 C 53.765625 212.472656 49.914062 172.246094 49.914062 113.242188 L 49.914062 95.023438 C 49.914062 50.105469 43.835938 32.703125 32.625 25.953125 C 27.101562 22.632812 17.175781 24.824219 8.519531 27.910156 L 0 16.300781 C 2.980469 12.386719 7.054688 8.628906 12.609375 5.859375 C 18.027344 3.160156 45.351562 -5.605469 71.035156 8.316406 C 96.722656 22.242188 119.277344 50.878906 119.277344 95.023438 L 119.277344 135.28125 C 119.277344 154.308594 121.023438 176.101562 124.515625 200.671875 C 128.007812 225.238281 134.332031 244.382812 143.480469 258.105469 C 152.632812 271.839844 165.824219 283.15625 183.042969 292.070312 C 191.40625 296.394531 200.691406 299.675781 210.90625 301.902344 " fill-opacity="1" fill-rule="nonzero"/></g></svg>