<svg xmlns="http://www.w3.org/2000/svg" xmlns:xlink="http://www.w3.org/1999/xlink" width="454" zoomAndPan="magnify" viewBox="0 0 340.5 384.749984" height="513" preserveAspectRatio="xMidYMid meet" version="1.0"><defs><clipPath id="52fa38234a"><path d="M 3 0.15625 L 337 0.15625 L 337 384.34375 L 3 384.34375 Z M 3 0.15625 " clip-rule="nonzero"/></clipPath></defs><g clip-path="url(#52fa38234a)"><path fill="#63a891" d="M 306.675781 0.15625 L 308.15625 93.246094 C 305.199219 93.246094 302.246094 93.246094 297.8125 93.246094 C 293.378906 93.246094 291.902344 91.769531 290.425781 87.335938 C 290.425781 84.378906 288.945312 82.902344 288.945312 79.945312 C 280.082031 47.441406 262.351562 29.710938 229.84375 29.710938 C 185.515625 29.710938 119.023438 29.710938 117.546875 29.710938 C 116.066406 29.710938 113.113281 29.710938 113.113281 32.664062 C 148.574219 79.945312 184.039062 127.230469 220.976562 174.511719 C 178.128906 224.75 92.425781 325.226562 92.425781 325.226562 C 92.425781 325.226562 195.859375 325.226562 250.527344 325.226562 C 280.082031 325.226562 300.765625 316.363281 311.109375 289.765625 C 312.589844 286.808594 314.066406 285.332031 314.066406 282.378906 C 318.5 263.167969 336.230469 266.125 336.230469 266.125 L 314.066406 384.332031 C 314.066406 384.332031 15.59375 384.332031 11.160156 384.332031 C 6.726562 384.332031 3.769531 381.375 3.769531 379.898438 C 56.964844 316.363281 107.203125 255.78125 160.394531 192.246094 C 107.203125 127.230469 3.769531 0.15625 3.769531 0.15625 Z M 306.675781 0.15625 " fill-opacity="1" fill-rule="nonzero"/></g></svg>