<svg xmlns="http://www.w3.org/2000/svg" xmlns:xlink="http://www.w3.org/1999/xlink" width="220" zoomAndPan="magnify" viewBox="0 0 165 165.000002" height="220" preserveAspectRatio="xMidYMid meet" version="1.0"><defs><clipPath id="0652a4c216"><path d="M 0.496094 0 L 164.503906 0 L 164.503906 163 L 0.496094 163 Z M 0.496094 0 " clip-rule="nonzero"/></clipPath></defs><g clip-path="url(#0652a4c216)"><path fill="#63a891" d="M 118.128906 137.914062 L 118.128906 140.730469 L 151.816406 140.730469 L 158.316406 120.800781 L 164.925781 120.800781 L 152.25 162.9375 L 97.550781 162.9375 C 106.214844 147.339844 112.769531 131.632812 117.207031 115.816406 C 121.648438 100.003906 123.871094 84.585938 123.871094 69.566406 C 123.871094 49.5625 120.421875 34.46875 113.527344 24.285156 C 106.628906 14.105469 96.394531 9.011719 82.816406 9.011719 C 69.167969 9.011719 58.894531 14.066406 52 24.179688 C 45.101562 34.289062 41.652344 49.417969 41.652344 69.566406 C 41.652344 84.660156 43.855469 100.039062 48.261719 115.710938 C 52.667969 131.378906 59.238281 147.125 67.976562 162.9375 L 13.164062 162.9375 L 0.601562 120.800781 L 7.207031 120.800781 L 13.597656 140.730469 L 47.394531 140.730469 L 47.394531 137.914062 C 35.480469 124.699219 26.921875 112.605469 21.722656 101.628906 C 16.523438 90.648438 13.921875 79.421875 13.921875 67.9375 C 13.921875 48.65625 20.53125 32.644531 33.746094 19.898438 C 46.960938 7.152344 63.320312 0.777344 82.816406 0.777344 C 102.316406 0.777344 118.652344 7.171875 131.832031 19.953125 C 145.011719 32.734375 151.601562 48.730469 151.601562 67.9375 C 151.601562 79.347656 149.019531 90.503906 143.855469 101.410156 C 138.691406 112.3125 130.117188 124.480469 118.128906 137.914062 Z M 118.128906 137.914062 " fill-opacity="1" fill-rule="nonzero"/></g></svg>