<svg xmlns="http://www.w3.org/2000/svg" xmlns:xlink="http://www.w3.org/1999/xlink" width="1008" zoomAndPan="magnify" viewBox="0 0 756 449.999984" height="600" preserveAspectRatio="xMidYMid meet" version="1.0"><defs><g/></defs><g fill="#63a891" fill-opacity="1"><g transform="translate(31.664674, 174.594835)"><g><path d="M 24.140625 -119.71875 L 5.640625 -119.71875 L 5.640625 -138.015625 L 44.578125 -138.015625 L 44.578125 0 L 24.140625 0 Z M 24.140625 -119.71875 "/></g></g></g><g fill="#63a891" fill-opacity="1"><g transform="translate(8.642117, 391.143988)"><g><path d="M 55.484375 1.953125 C 48.734375 1.953125 42.40625 0.363281 36.5 -2.8125 C 30.59375 -6 25.367188 -10.515625 20.828125 -16.359375 C 16.546875 -22.066406 13.171875 -28.617188 10.703125 -36.015625 C 8.242188 -43.410156 7.015625 -51.328125 7.015625 -59.765625 L 7.015625 -76.703125 C 7.015625 -86.046875 8.179688 -94.546875 10.515625 -102.203125 C 12.847656 -109.859375 16.09375 -116.476562 20.25 -122.0625 C 24.394531 -127.769531 29.484375 -132.148438 35.515625 -135.203125 C 41.554688 -138.253906 48.210938 -139.78125 55.484375 -139.78125 C 62.617188 -139.78125 69.203125 -138.285156 75.234375 -135.296875 C 81.273438 -132.304688 86.367188 -127.957031 90.515625 -122.25 C 94.671875 -116.675781 97.984375 -110.023438 100.453125 -102.296875 C 102.921875 -94.578125 104.15625 -86.046875 104.15625 -76.703125 L 104.15625 -59.765625 C 104.15625 -50.804688 102.890625 -42.59375 100.359375 -35.125 C 97.828125 -27.664062 94.421875 -21.148438 90.140625 -15.578125 C 85.722656 -9.992188 80.5625 -5.675781 74.65625 -2.625 C 68.75 0.425781 62.359375 1.953125 55.484375 1.953125 Z M 26.859375 -59.765625 C 26.859375 -53.398438 27.632812 -47.492188 29.1875 -42.046875 C 30.75 -36.597656 33.023438 -31.925781 36.015625 -28.03125 C 38.609375 -24.65625 41.5625 -22.023438 44.875 -20.140625 C 48.1875 -18.265625 51.722656 -17.328125 55.484375 -17.328125 C 59.765625 -17.328125 63.65625 -18.363281 67.15625 -20.4375 C 70.664062 -22.519531 73.6875 -25.410156 76.21875 -29.109375 C 78.75 -32.804688 80.726562 -37.25 82.15625 -42.4375 C 83.582031 -47.625 84.296875 -53.398438 84.296875 -59.765625 L 84.296875 -76.703125 C 84.296875 -91.492188 81.3125 -102.847656 75.34375 -110.765625 C 70.28125 -117.253906 63.660156 -120.5 55.484375 -120.5 C 47.171875 -120.5 40.488281 -117.191406 35.4375 -110.578125 C 29.71875 -102.921875 26.859375 -91.628906 26.859375 -76.703125 Z M 26.859375 -59.765625 "/></g></g></g><path stroke-linecap="butt" transform="matrix(1.77409, 0, 0, 1.77409, 0.000013692, 209.452776)" fill="none" stroke-linejoin="miter" d="M -0.00000771776 1.999461 L 68.532038 1.999461 " stroke="#63a891" stroke-width="4" stroke-opacity="1" stroke-miterlimit="4"/><g fill="#63a891" fill-opacity="1"><g transform="translate(154.007711, 280.053457)"><g><path d="M 90.03125 -73.171875 L 9.9375 -73.171875 L 9.9375 -93.5625 L 90.03125 -93.5625 Z M 90.03125 -36.109375 L 9.9375 -36.109375 L 9.9375 -56.5 L 90.03125 -56.5 Z M 90.03125 -36.109375 "/></g></g></g><g fill="#63a891" fill-opacity="1"><g transform="translate(286.308858, 240.729201)"><g><path d="M 60.09375 -26.140625 C 60.09375 -22.390625 59.378906 -18.863281 57.953125 -15.5625 C 56.523438 -12.269531 54.597656 -9.390625 52.171875 -6.921875 C 49.742188 -4.460938 46.894531 -2.519531 43.625 -1.09375 C 40.363281 0.332031 36.859375 1.046875 33.109375 1.046875 C 29.367188 1.046875 25.863281 0.332031 22.59375 -1.09375 C 19.332031 -2.519531 16.484375 -4.460938 14.046875 -6.921875 C 11.617188 -9.390625 9.691406 -12.269531 8.265625 -15.5625 C 6.847656 -18.863281 6.140625 -22.390625 6.140625 -26.140625 L 6.140625 -73.828125 L 16.96875 -73.828125 L 16.96875 -26.140625 C 16.96875 -23.921875 17.382812 -21.800781 18.21875 -19.78125 C 19.050781 -17.769531 20.195312 -15.984375 21.65625 -14.421875 C 23.113281 -12.859375 24.832031 -11.625 26.8125 -10.71875 C 28.789062 -9.820312 30.890625 -9.375 33.109375 -9.375 C 35.335938 -9.375 37.421875 -9.820312 39.359375 -10.71875 C 41.304688 -11.625 43.007812 -12.859375 44.46875 -14.421875 C 45.925781 -15.984375 47.070312 -17.769531 47.90625 -19.78125 C 48.738281 -21.800781 49.15625 -23.921875 49.15625 -26.140625 L 49.15625 -73.828125 L 60.09375 -73.828125 Z M 60.09375 -26.140625 "/></g></g></g><g fill="#63a891" fill-opacity="1"><g transform="translate(352.328884, 240.729201)"><g><path d="M 15.71875 0 L 5.625 0 L 5.625 -49.890625 L 13.640625 -49.890625 L 15.71875 -45.515625 C 17.382812 -47.109375 19.398438 -48.425781 21.765625 -49.46875 C 24.128906 -50.507812 26.695312 -51.03125 29.46875 -51.03125 C 31.269531 -51.03125 33.316406 -50.75 35.609375 -50.1875 C 37.898438 -49.632812 40.035156 -48.59375 42.015625 -47.0625 C 43.992188 -45.539062 45.660156 -43.425781 47.015625 -40.71875 C 48.367188 -38.007812 49.046875 -34.503906 49.046875 -30.203125 L 49.046875 0 L 39.46875 0 L 39.46875 -30.3125 C 39.46875 -32.457031 39.132812 -34.273438 38.46875 -35.765625 C 37.8125 -37.265625 36.945312 -38.460938 35.875 -39.359375 C 34.800781 -40.265625 33.585938 -40.90625 32.234375 -41.28125 C 30.878906 -41.664062 29.472656 -41.859375 28.015625 -41.859375 C 26.898438 -41.859375 25.628906 -41.648438 24.203125 -41.234375 C 22.785156 -40.816406 21.453125 -40.140625 20.203125 -39.203125 C 18.953125 -38.265625 17.890625 -37.082031 17.015625 -35.65625 C 16.148438 -34.238281 15.71875 -32.488281 15.71875 -30.40625 Z M 15.71875 0 "/></g></g></g><g fill="#63a891" fill-opacity="1"><g transform="translate(407.935674, 240.729201)"><g><path d="M 53.53125 -76.015625 L 53.53125 0 L 45.515625 0 L 43.421875 -5.203125 C 41.410156 -3.191406 39.117188 -1.613281 36.546875 -0.46875 C 33.984375 0.675781 31.035156 1.25 27.703125 1.25 C 24.234375 1.25 21.039062 0.570312 18.125 -0.78125 C 15.207031 -2.132812 12.671875 -3.988281 10.515625 -6.34375 C 8.367188 -8.707031 6.6875 -11.484375 5.46875 -14.671875 C 4.25 -17.867188 3.640625 -21.273438 3.640625 -24.890625 C 3.640625 -28.503906 4.25 -31.90625 5.46875 -35.09375 C 6.6875 -38.289062 8.367188 -41.066406 10.515625 -43.421875 C 12.671875 -45.785156 15.207031 -47.644531 18.125 -49 C 21.039062 -50.351562 24.234375 -51.03125 27.703125 -51.03125 C 31.171875 -51.03125 34.1875 -50.457031 36.75 -49.3125 C 39.320312 -48.164062 41.546875 -46.550781 43.421875 -44.46875 L 43.421875 -76.015625 Z M 28.53125 -7.703125 C 30.613281 -7.703125 32.539062 -8.050781 34.3125 -8.75 C 36.082031 -9.445312 37.644531 -10.503906 39 -11.921875 C 40.351562 -13.347656 41.410156 -15.132812 42.171875 -17.28125 C 42.941406 -19.4375 43.328125 -21.972656 43.328125 -24.890625 C 43.328125 -28.015625 42.941406 -30.648438 42.171875 -32.796875 C 41.410156 -34.953125 40.351562 -36.707031 39 -38.0625 C 37.644531 -39.414062 36.082031 -40.382812 34.3125 -40.96875 C 32.539062 -41.5625 30.613281 -41.859375 28.53125 -41.859375 C 26.519531 -41.859375 24.609375 -41.425781 22.796875 -40.5625 C 20.992188 -39.695312 19.429688 -38.5 18.109375 -36.96875 C 16.796875 -35.4375 15.753906 -33.628906 14.984375 -31.546875 C 14.222656 -29.472656 13.84375 -27.253906 13.84375 -24.890625 C 13.84375 -22.523438 14.222656 -20.300781 14.984375 -18.21875 C 15.753906 -16.132812 16.796875 -14.3125 18.109375 -12.75 C 19.429688 -11.1875 20.992188 -9.953125 22.796875 -9.046875 C 24.609375 -8.148438 26.519531 -7.703125 28.53125 -7.703125 Z M 28.53125 -7.703125 "/></g></g></g><g fill="#63a891" fill-opacity="1"><g transform="translate(468.228423, 240.729201)"><g><path d="M 29.46875 1.25 C 25.863281 1.25 22.476562 0.570312 19.3125 -0.78125 C 16.15625 -2.132812 13.394531 -3.988281 11.03125 -6.34375 C 8.675781 -8.707031 6.820312 -11.484375 5.46875 -14.671875 C 4.113281 -17.867188 3.4375 -21.273438 3.4375 -24.890625 C 3.4375 -28.503906 4.078125 -31.90625 5.359375 -35.09375 C 6.648438 -38.289062 8.382812 -41.066406 10.5625 -43.421875 C 12.75 -45.785156 15.300781 -47.644531 18.21875 -49 C 21.132812 -50.351562 24.257812 -51.03125 27.59375 -51.03125 C 31 -51.03125 34.140625 -50.4375 37.015625 -49.25 C 39.898438 -48.070312 42.398438 -46.234375 44.515625 -43.734375 C 46.640625 -41.234375 48.289062 -38.054688 49.46875 -34.203125 C 50.644531 -30.359375 51.234375 -25.757812 51.234375 -20.40625 L 14.15625 -20.40625 C 14.644531 -18.601562 15.410156 -16.921875 16.453125 -15.359375 C 17.492188 -13.796875 18.722656 -12.441406 20.140625 -11.296875 C 21.566406 -10.148438 23.164062 -9.265625 24.9375 -8.640625 C 26.707031 -8.015625 28.566406 -7.703125 30.515625 -7.703125 C 33.148438 -7.703125 35.59375 -8.1875 37.84375 -9.15625 C 40.101562 -10.132812 42.035156 -11.421875 43.640625 -13.015625 L 49.890625 -6.765625 C 47.453125 -4.335938 44.476562 -2.394531 40.96875 -0.9375 C 37.46875 0.519531 33.632812 1.25 29.46875 1.25 Z M 27.59375 -41.859375 C 26 -41.859375 24.488281 -41.546875 23.0625 -40.921875 C 21.644531 -40.296875 20.328125 -39.425781 19.109375 -38.3125 C 17.890625 -37.207031 16.847656 -35.890625 15.984375 -34.359375 C 15.117188 -32.835938 14.476562 -31.175781 14.0625 -29.375 L 40.40625 -29.375 C 40.269531 -31.03125 39.890625 -32.625 39.265625 -34.15625 C 38.640625 -35.6875 37.769531 -37.023438 36.65625 -38.171875 C 35.539062 -39.316406 34.238281 -40.21875 32.75 -40.875 C 31.257812 -41.53125 29.539062 -41.859375 27.59375 -41.859375 Z M 27.59375 -41.859375 "/></g></g></g><g fill="#63a891" fill-opacity="1"><g transform="translate(523.418666, 240.729201)"><g><path d="M 13.015625 0 L 13.015625 -40.828125 L 4.484375 -40.828125 L 4.484375 -47.796875 L 13.015625 -49.890625 L 13.015625 -55.921875 C 13.015625 -59.460938 13.460938 -62.535156 14.359375 -65.140625 C 15.265625 -67.742188 16.5 -69.878906 18.0625 -71.546875 C 19.625 -73.210938 21.410156 -74.441406 23.421875 -75.234375 C 25.441406 -76.035156 27.597656 -76.4375 29.890625 -76.4375 C 32.734375 -76.4375 35.613281 -75.847656 38.53125 -74.671875 L 38.53125 -67.28125 C 36.03125 -68.039062 33.878906 -68.421875 32.078125 -68.421875 C 29.234375 -68.421875 27.03125 -67.550781 25.46875 -65.8125 C 23.90625 -64.082031 23.125 -61.304688 23.125 -57.484375 L 23.125 -49.890625 L 38.53125 -49.890625 L 38.53125 -40.828125 L 23.125 -40.828125 L 23.125 0 Z M 13.015625 0 "/></g></g></g><g fill="#63a891" fill-opacity="1"><g transform="translate(562.989052, 240.729201)"><g><path d="M 16.34375 0 L 6.25 0 L 6.25 -49.890625 L 16.25 -49.890625 Z M 11.25 -60.71875 C 9.445312 -60.71875 7.921875 -61.359375 6.671875 -62.640625 C 5.421875 -63.921875 4.796875 -65.46875 4.796875 -67.28125 C 4.796875 -69.082031 5.421875 -70.609375 6.671875 -71.859375 C 7.921875 -73.109375 9.445312 -73.734375 11.25 -73.734375 C 13.050781 -73.734375 14.578125 -73.109375 15.828125 -71.859375 C 17.078125 -70.609375 17.703125 -69.082031 17.703125 -67.28125 C 17.703125 -65.46875 17.078125 -63.921875 15.828125 -62.640625 C 14.578125 -61.359375 13.050781 -60.71875 11.25 -60.71875 Z M 11.25 -60.71875 "/></g></g></g><g fill="#63a891" fill-opacity="1"><g transform="translate(584.856878, 240.729201)"><g><path d="M 15.71875 0 L 5.625 0 L 5.625 -49.890625 L 13.640625 -49.890625 L 15.71875 -45.515625 C 17.382812 -47.109375 19.398438 -48.425781 21.765625 -49.46875 C 24.128906 -50.507812 26.695312 -51.03125 29.46875 -51.03125 C 31.269531 -51.03125 33.316406 -50.75 35.609375 -50.1875 C 37.898438 -49.632812 40.035156 -48.59375 42.015625 -47.0625 C 43.992188 -45.539062 45.660156 -43.425781 47.015625 -40.71875 C 48.367188 -38.007812 49.046875 -34.503906 49.046875 -30.203125 L 49.046875 0 L 39.46875 0 L 39.46875 -30.3125 C 39.46875 -32.457031 39.132812 -34.273438 38.46875 -35.765625 C 37.8125 -37.265625 36.945312 -38.460938 35.875 -39.359375 C 34.800781 -40.265625 33.585938 -40.90625 32.234375 -41.28125 C 30.878906 -41.664062 29.472656 -41.859375 28.015625 -41.859375 C 26.898438 -41.859375 25.628906 -41.648438 24.203125 -41.234375 C 22.785156 -40.816406 21.453125 -40.140625 20.203125 -39.203125 C 18.953125 -38.265625 17.890625 -37.082031 17.015625 -35.65625 C 16.148438 -34.238281 15.71875 -32.488281 15.71875 -30.40625 Z M 15.71875 0 "/></g></g></g><g fill="#63a891" fill-opacity="1"><g transform="translate(640.463668, 240.729201)"><g><path d="M 29.46875 1.25 C 25.863281 1.25 22.476562 0.570312 19.3125 -0.78125 C 16.15625 -2.132812 13.394531 -3.988281 11.03125 -6.34375 C 8.675781 -8.707031 6.820312 -11.484375 5.46875 -14.671875 C 4.113281 -17.867188 3.4375 -21.273438 3.4375 -24.890625 C 3.4375 -28.503906 4.078125 -31.90625 5.359375 -35.09375 C 6.648438 -38.289062 8.382812 -41.066406 10.5625 -43.421875 C 12.75 -45.785156 15.300781 -47.644531 18.21875 -49 C 21.132812 -50.351562 24.257812 -51.03125 27.59375 -51.03125 C 31 -51.03125 34.140625 -50.4375 37.015625 -49.25 C 39.898438 -48.070312 42.398438 -46.234375 44.515625 -43.734375 C 46.640625 -41.234375 48.289062 -38.054688 49.46875 -34.203125 C 50.644531 -30.359375 51.234375 -25.757812 51.234375 -20.40625 L 14.15625 -20.40625 C 14.644531 -18.601562 15.410156 -16.921875 16.453125 -15.359375 C 17.492188 -13.796875 18.722656 -12.441406 20.140625 -11.296875 C 21.566406 -10.148438 23.164062 -9.265625 24.9375 -8.640625 C 26.707031 -8.015625 28.566406 -7.703125 30.515625 -7.703125 C 33.148438 -7.703125 35.59375 -8.1875 37.84375 -9.15625 C 40.101562 -10.132812 42.035156 -11.421875 43.640625 -13.015625 L 49.890625 -6.765625 C 47.453125 -4.335938 44.476562 -2.394531 40.96875 -0.9375 C 37.46875 0.519531 33.632812 1.25 29.46875 1.25 Z M 27.59375 -41.859375 C 26 -41.859375 24.488281 -41.546875 23.0625 -40.921875 C 21.644531 -40.296875 20.328125 -39.425781 19.109375 -38.3125 C 17.890625 -37.207031 16.847656 -35.890625 15.984375 -34.359375 C 15.117188 -32.835938 14.476562 -31.175781 14.0625 -29.375 L 40.40625 -29.375 C 40.269531 -31.03125 39.890625 -32.625 39.265625 -34.15625 C 38.640625 -35.6875 37.769531 -37.023438 36.65625 -38.171875 C 35.539062 -39.316406 34.238281 -40.21875 32.75 -40.875 C 31.257812 -41.53125 29.539062 -41.859375 27.59375 -41.859375 Z M 27.59375 -41.859375 "/></g></g></g><g fill="#63a891" fill-opacity="1"><g transform="translate(695.653911, 240.729201)"><g><path d="M 53.53125 -76.015625 L 53.53125 0 L 45.515625 0 L 43.421875 -5.203125 C 41.410156 -3.191406 39.117188 -1.613281 36.546875 -0.46875 C 33.984375 0.675781 31.035156 1.25 27.703125 1.25 C 24.234375 1.25 21.039062 0.570312 18.125 -0.78125 C 15.207031 -2.132812 12.671875 -3.988281 10.515625 -6.34375 C 8.367188 -8.707031 6.6875 -11.484375 5.46875 -14.671875 C 4.25 -17.867188 3.640625 -21.273438 3.640625 -24.890625 C 3.640625 -28.503906 4.25 -31.90625 5.46875 -35.09375 C 6.6875 -38.289062 8.367188 -41.066406 10.515625 -43.421875 C 12.671875 -45.785156 15.207031 -47.644531 18.125 -49 C 21.039062 -50.351562 24.234375 -51.03125 27.703125 -51.03125 C 31.171875 -51.03125 34.1875 -50.457031 36.75 -49.3125 C 39.320312 -48.164062 41.546875 -46.550781 43.421875 -44.46875 L 43.421875 -76.015625 Z M 28.53125 -7.703125 C 30.613281 -7.703125 32.539062 -8.050781 34.3125 -8.75 C 36.082031 -9.445312 37.644531 -10.503906 39 -11.921875 C 40.351562 -13.347656 41.410156 -15.132812 42.171875 -17.28125 C 42.941406 -19.4375 43.328125 -21.972656 43.328125 -24.890625 C 43.328125 -28.015625 42.941406 -30.648438 42.171875 -32.796875 C 41.410156 -34.953125 40.351562 -36.707031 39 -38.0625 C 37.644531 -39.414062 36.082031 -40.382812 34.3125 -40.96875 C 32.539062 -41.5625 30.613281 -41.859375 28.53125 -41.859375 C 26.519531 -41.859375 24.609375 -41.425781 22.796875 -40.5625 C 20.992188 -39.695312 19.429688 -38.5 18.109375 -36.96875 C 16.796875 -35.4375 15.753906 -33.628906 14.984375 -31.546875 C 14.222656 -29.472656 13.84375 -27.253906 13.84375 -24.890625 C 13.84375 -22.523438 14.222656 -20.300781 14.984375 -18.21875 C 15.753906 -16.132812 16.796875 -14.3125 18.109375 -12.75 C 19.429688 -11.1875 20.992188 -9.953125 22.796875 -9.046875 C 24.609375 -8.148438 26.519531 -7.703125 28.53125 -7.703125 Z M 28.53125 -7.703125 "/></g></g></g></svg>