<svg xmlns="http://www.w3.org/2000/svg" xmlns:xlink="http://www.w3.org/1999/xlink" width="910" zoomAndPan="magnify" viewBox="0 0 683.25 702.749984" height="937" preserveAspectRatio="xMidYMid meet" version="1.0"><path fill="#168d63" d="M 567.082031 37.011719 C 619.527344 71.289062 651.324219 136.949219 666.191406 201.367188 C 681.058594 265.375 678.992188 328.144531 669.082031 388.847656 C 659.585938 449.964844 642.652344 509.019531 608.378906 560.222656 C 574.101562 611.429688 523.308594 654.789062 463.019531 677.503906 C 402.316406 700.628906 332.9375 703.105469 273.472656 681.21875 C 214.421875 658.921875 165.28125 612.257812 120.269531 561.050781 C 75.257812 510.257812 33.960938 455.335938 17.855469 392.152344 C 1.335938 328.972656 9.597656 257.53125 38.503906 196 C 67.410156 134.46875 116.964844 82.851562 175.605469 51.464844 C 233.828125 20.082031 301.554688 8.933594 371.757812 4.804688 C 441.957031 0.261719 514.636719 3.152344 567.082031 37.011719 Z M 567.082031 37.011719 " fill-opacity="1" fill-rule="nonzero"/></svg>