<svg xmlns="http://www.w3.org/2000/svg" xmlns:xlink="http://www.w3.org/1999/xlink" width="400" zoomAndPan="magnify" viewBox="0 0 300 299.999988" height="400" preserveAspectRatio="xMidYMid meet" version="1.0"><path fill="#63a891" d="M 0 95.292969 C 8.824219 72.351562 17.648438 49.410156 30 28.234375 C 35.292969 15.882812 44.117188 0 144.707031 0 C 220.589844 0 285.882812 0 300 0 L 300 52.941406 L 234.707031 52.941406 C 217.058594 241.765625 224.117188 247.058594 254.117188 247.058594 C 273.53125 247.058594 287.648438 217.058594 287.648438 201.175781 L 300 201.175781 C 300 287.648438 261.175781 300 231.175781 300 C 197.648438 300 176.46875 275.292969 176.46875 238.234375 C 176.46875 190.589844 187.058594 135.882812 195.882812 52.941406 L 132.351562 52.941406 C 114.707031 241.765625 111.175781 300 52.941406 300 C 38.824219 300 17.648438 289.410156 17.648438 262.941406 C 17.648438 210 81.175781 273.53125 98.824219 52.941406 C 98.824219 52.941406 81.175781 52.941406 72.351562 52.941406 C 49.410156 52.941406 31.765625 61.765625 17.648438 88.234375 C 14.117188 95.292969 10.589844 98.824219 0 95.292969 Z M 0 95.292969 " fill-opacity="1" fill-rule="nonzero"/></svg>